<svg width="150" height="37" viewBox="0 0 150 37" fill="none" xmlns="http://www.w3.org/2000/svg">
<g clip-path="url(#clip0_602_720)">
<path d="M53.1891 28.0397C51.589 28.0397 50.081 27.8135 48.7071 27.403C47.3332 26.9925 46.1436 26.3558 45.1382 25.5767L46.42 22.8372C47.4253 23.6163 48.4809 24.1609 49.57 24.5295C50.6674 24.8981 51.857 25.074 53.1807 25.074C54.6468 25.074 55.7442 24.7976 56.515 24.2949C57.2941 23.7922 57.7046 23.0634 57.7046 22.1503C57.7046 21.3711 57.336 20.7763 56.6071 20.3658C55.8783 19.9553 54.6887 19.5448 52.9964 19.1762C50.391 18.6317 48.4725 17.8945 47.2829 16.9813C46.0933 16.0681 45.4985 14.7864 45.4985 13.0522C45.4985 11.8207 45.8168 10.7233 46.5038 9.75986C47.1907 8.79644 48.1039 8.06759 49.3354 7.52305C50.5669 6.97851 51.9408 6.70205 53.5409 6.70205C55.007 6.70205 56.3725 6.92825 57.7046 7.33875C59.0282 7.79951 60.0838 8.38594 60.9467 9.16505L59.6649 11.9045C57.7884 10.4384 55.7777 9.6677 53.5409 9.6677C52.2173 9.6677 51.1198 9.94416 50.3407 10.4887C49.5616 11.0332 49.1511 11.8124 49.1511 12.7758C49.1511 13.5968 49.5197 14.2418 50.1983 14.6523C50.8852 15.0628 52.0749 15.4733 53.7671 15.842C55.5013 16.2525 56.9171 16.7132 58.0145 17.1656C59.112 17.6264 59.933 18.2631 60.5278 18.9919C61.1226 19.7208 61.3991 20.6842 61.3991 21.8235C61.3991 23.055 61.0807 24.1525 60.3938 25.0656C59.7068 25.9788 58.7937 26.7076 57.5119 27.2103C56.339 27.7632 54.8813 28.0397 53.1891 28.0397ZM64.7082 27.7632V6.23291H68.3189V27.7632H64.7082ZM86.3307 13.002L79.4778 28.7685C78.6987 30.5948 77.6934 31.9185 76.5038 32.7897C75.3142 33.6107 73.8062 34.2055 72.0218 34.4317L71.2008 31.642C72.5747 31.3237 73.6219 30.9551 74.3089 30.4524C74.9958 29.9916 75.5404 29.2628 76.0012 28.3496L76.4619 27.2522L70.3379 12.9936H74.1748L78.4223 23.5996L82.7618 12.9936H86.3307V13.002ZM96.6602 12.5915C100.179 12.5915 101.963 14.6021 101.963 18.6736V27.7716H98.3022V18.8495C98.3022 17.6599 98.076 16.8389 97.6152 16.286C97.1545 15.7414 96.4759 15.465 95.5544 15.465C94.4569 15.465 93.5438 15.8336 92.8568 16.5122C92.1698 17.241 91.8515 18.1542 91.8515 19.3438V27.7548H88.1905V17.1656C88.1905 15.6074 88.0983 14.1916 87.9643 12.9601H91.3907L91.6672 15.3812C92.1698 14.468 92.8568 13.7811 93.7281 13.3203C94.5993 12.8679 95.5627 12.5915 96.6602 12.5915ZM112.569 27.9978C111.011 27.9978 109.687 27.6794 108.548 27.0846C107.409 26.4479 106.537 25.5767 105.943 24.4373C105.348 23.298 105.029 21.9659 105.029 20.4161C105.029 18.8579 105.348 17.5342 105.993 16.3446C106.629 15.155 107.501 14.2418 108.69 13.6052C109.83 12.9685 111.204 12.6417 112.712 12.6417C113.759 12.6417 114.772 12.826 115.778 13.1444C116.783 13.4627 117.562 13.9235 118.157 14.5183L117.152 17.0818C116.515 16.5792 115.87 16.1687 115.141 15.9425C114.412 15.7163 113.725 15.532 113.08 15.532C111.757 15.532 110.701 15.9425 109.972 16.7635C109.243 17.5845 108.875 18.7741 108.875 20.3323C108.875 21.8905 109.243 23.0718 109.972 23.9012C110.701 24.7305 111.757 25.1327 113.08 25.1327C113.767 25.1327 114.454 24.9986 115.141 24.7222C115.828 24.4457 116.515 24.0352 117.152 23.5325L118.157 26.0961C117.52 26.6909 116.741 27.1433 115.736 27.47C114.714 27.7632 113.667 27.9978 112.569 27.9978ZM120.478 23.6498H124.591V27.7632H120.478V23.6498ZM128.202 27.7632V13.002H131.812V27.7632H128.202ZM127.967 6.28318H132.039V9.8939H127.967V6.28318ZM142.552 27.9978C141.044 27.9978 139.721 27.6794 138.573 27.0846C137.434 26.4479 136.562 25.5767 135.926 24.3871C135.331 23.2477 135.013 21.8738 135.013 20.3156C135.013 18.7573 135.331 17.3918 135.926 16.2441C136.521 15.1047 137.434 14.1832 138.573 13.5465C139.712 12.9098 141.044 12.6334 142.552 12.6334C144.019 12.6334 145.342 12.9517 146.482 13.5465C147.621 14.1832 148.492 15.0545 149.087 16.2441C149.682 17.3834 150 18.7573 150 20.3156C150 21.8738 149.682 23.2393 149.087 24.3871C148.492 25.5264 147.579 26.4479 146.482 27.0846C145.384 27.7213 144.019 27.9978 142.552 27.9978ZM142.511 25.1159C143.742 25.1159 144.705 24.7054 145.342 23.8844C145.979 23.0634 146.306 21.8738 146.306 20.2737C146.306 18.6736 145.987 17.484 145.3 16.663C144.613 15.842 143.7 15.4315 142.511 15.4315C141.279 15.4315 140.316 15.842 139.679 16.663C139.042 17.484 138.674 18.6736 138.674 20.2737C138.674 21.8738 138.992 23.0634 139.637 23.8844C140.358 24.7473 141.271 25.1159 142.511 25.1159Z" fill="white"/>
<path d="M23.2393 0.695337H13.2449C14.0911 0.284837 16.0095 0 18.2463 0C20.4664 0 22.3932 0.284837 23.2393 0.695337Z" fill="#0197F6"/>
<path d="M32.9153 34.8674V33.0829H32.2284V32.7646H33.9625V33.0829H33.2756V34.8674H32.9153Z" fill="#0197F6"/>
<path d="M35.9731 32.7646H36.2915V34.8674H35.9229V33.5856L35.3783 34.8674H35.1521L34.6076 33.5856V34.8674H34.2892V32.7646H34.5657L35.2946 34.4066L35.9731 32.7646Z" fill="#0197F6"/>
<path d="M4.38984 22.2256C4.38146 22.2256 4.38146 22.2172 4.37308 22.2172C3.06618 21.2789 1.65875 19.9804 0.494275 18.196C0.326724 17.9363 0.167551 17.6766 0.0251326 17.4253C0.0251326 17.4253 0.0251326 17.4169 0.0167551 17.4169V17.4253C0 17.6934 0 17.9698 0 18.2379C0 19.6369 0.159173 22.1586 1.26501 24.9232C1.3069 25.0153 1.33203 25.0991 1.35716 25.141V25.1494C1.35716 25.1494 1.35716 25.141 1.36554 25.141C1.75929 24.6886 2.19492 24.2195 2.68919 23.7419C3.26724 23.1723 3.83692 22.678 4.38146 22.2424C4.38146 22.2424 4.38984 22.234 4.38984 22.2256Z" fill="#0197F6"/>
<path d="M30.5948 15.1131C30.3686 14.979 30.2345 14.7445 30.2345 14.4764C30.2345 14.1999 30.3686 13.9821 30.5948 13.8397C32.1781 12.8428 33.5102 11.4437 34.4652 9.90224C34.2558 9.53363 34.0379 9.16502 33.8117 8.77965C33.5772 8.40266 33.3426 8.03405 33.1164 7.68219C33.1164 7.77434 32.6556 8.57859 32.5467 8.75452C32.3289 9.11475 32.086 9.44985 31.8263 9.77658C31.0136 10.7986 30 11.6531 28.8522 12.2731C27.604 12.9517 26.2301 13.2784 24.8226 13.4208C23.8676 13.513 22.4937 13.513 21.2789 13.513C18.7992 13.513 16.2859 13.513 13.8145 13.513C13.1527 13.513 12.4825 13.4627 11.8291 13.3454C11.3348 13.2533 10.8656 13.0438 10.497 12.6836C9.9106 12.1139 9.60901 11.2594 9.7263 10.4468C9.84358 9.63416 10.3714 8.90531 11.1086 8.54508C11.7537 8.22673 12.5747 8.25186 13.2784 8.25186C16.3781 8.24349 19.4861 8.25186 22.5775 8.25186C22.6026 8.25186 22.6277 8.25186 22.6529 8.25186C23.3063 8.25186 23.9598 8.26024 24.6048 8.15971C26.3641 7.90001 27.7213 6.86957 28.4669 5.26108C28.6931 4.71654 28.8355 4.00445 28.8355 3.37613C28.6177 3.20858 28.3831 3.05778 28.1485 2.90699C27.8888 2.73944 27.6291 2.58026 27.3694 2.42947C27.1013 2.27867 26.8333 2.12788 26.5568 1.98546C26.4981 1.96032 26.2468 1.82628 26.2217 1.81791C26.1966 1.80115 26.1128 1.75926 26.0625 1.74251C26.0458 1.73413 26.0374 1.73413 26.0374 1.73413C26.0458 1.74251 26.0541 1.74251 26.0625 1.75089C26.1882 1.83466 26.2552 1.99383 26.3055 2.12788C26.3809 2.32056 26.4479 2.51324 26.4898 2.7143C26.5065 2.77295 26.5149 2.82321 26.5233 2.88186C26.5735 3.21696 26.5735 3.56881 26.4981 3.91229C26.3222 4.70816 25.7609 5.38674 24.9902 5.68833C24.4624 5.89777 23.8844 5.93966 23.3314 5.95642C23.2812 5.95642 13.957 5.95642 13.9234 5.95642C12.516 5.95642 11.2343 5.95642 10.4216 6.35016C9.8352 6.635 9.29066 6.93659 8.88016 7.38898C8.46966 7.79948 8.10943 8.33564 7.84135 8.93044C7.57327 9.51687 7.48111 10.1536 7.43085 10.7903C7.43085 11.1086 7.46436 11.4186 7.523 11.7034C7.53976 11.8039 7.62353 12.1726 7.83297 12.6417C7.95026 12.9098 8.21834 13.4878 8.77125 14.0743C9.44146 14.7864 10.1619 15.1131 10.4216 15.222C11.2091 15.5487 11.9045 15.5906 12.3233 15.5906H24.5629C29.8659 15.5906 34.172 19.8548 34.172 25.1494V26.1044C34.172 26.5065 34.172 26.8584 34.1301 27.1684V27.1767C34.1301 27.1767 34.1301 27.1684 34.1385 27.1684C34.993 25.6604 35.6381 24.01 36.0318 22.2675C35.2443 19.3102 33.3091 16.7383 30.5948 15.1131Z" fill="#0197F6"/>
<path d="M32.0441 14.2502C32.0525 14.2586 32.0609 14.2586 32.0693 14.267C33.3594 15.1801 34.7836 16.4786 35.9481 18.2882C36.1324 18.573 36.2999 18.8579 36.4591 19.1427C36.4591 19.1427 36.4591 19.1511 36.4675 19.1511V19.1427C36.4842 18.8411 36.4926 18.5479 36.4926 18.2379C36.4926 16.5038 36.258 14.8283 35.7973 13.2449C35.6884 12.8679 35.5795 12.4909 35.437 12.1223C35.4119 12.0553 35.37 11.938 35.3114 11.7788C35.236 11.5778 35.169 11.4102 35.1187 11.2762C35.1187 11.2678 35.1103 11.2678 35.1103 11.2594C35.1103 11.2594 35.1103 11.2594 35.1103 11.251C35.1103 11.251 35.1103 11.251 35.1103 11.2594C35.1019 11.2678 35.1019 11.2678 35.0936 11.2762C34.6579 11.8123 34.1469 12.382 33.5353 12.9601C33.0327 13.446 32.5384 13.8565 32.0776 14.2251C32.0609 14.2418 32.0525 14.2418 32.0441 14.2502Z" fill="#0197F6"/>
<path d="M28.5088 18.1876C27.1935 17.4504 25.8112 17.2159 24.3787 17.1405C23.566 17.0986 22.7534 17.1069 21.924 17.1069C21.8989 17.1069 15.4063 17.1069 15.289 17.1069C14.1246 17.1069 12.9768 17.1321 11.8207 17.0315C11.1254 16.9729 10.4468 16.8556 9.79336 16.6043C9.02262 16.2859 8.33566 15.8336 7.7995 15.2388C7.25496 14.6942 6.80257 14.0156 6.44234 13.2449C6.12399 12.4742 5.94806 11.6615 5.94806 10.7987C5.94806 9.93576 6.12399 9.12314 6.44234 8.35241C6.74393 7.58167 7.19632 6.90309 7.79112 6.36693C8.33566 5.82239 9.01425 5.37 9.78498 5.00139C10.5557 4.68304 11.3683 4.50711 12.2731 4.50711C12.2731 4.50711 23.8676 4.50711 23.876 4.50711C24.5043 4.50711 25.007 4.05473 25.007 3.41803C25.007 3.09969 24.9148 2.8316 24.6886 2.59703C24.4624 2.37084 24.2279 2.27869 23.8676 2.27869C23.8676 2.27869 13.0355 2.27869 11.8961 2.27869C11.2343 2.27869 10.5976 2.35408 9.97766 2.50488C8.96398 2.76458 8.19325 3.16671 7.79112 3.41803C7.65708 3.50181 7.0539 3.86204 6.37532 4.50711C5.9732 4.8841 5.14382 5.67997 4.52388 6.97849C3.99609 8.07595 3.85368 9.01423 3.79503 9.60066C3.60235 11.6113 3.83692 13.6638 4.87574 15.4231C5.06842 15.7498 5.28624 16.0681 5.52919 16.3697C6.66015 17.7771 8.25189 18.7741 10.0028 19.2013C10.9076 19.4275 13.6135 19.4275 13.7978 19.4275C14.5267 19.4275 23.2477 19.4275 23.2477 19.4275C24.2363 19.4275 25.2164 19.4359 26.1715 19.7543C26.9422 20.0223 27.6543 20.4328 28.2742 20.969C29.0031 21.6057 29.5895 22.4016 30 23.2812C30.3184 24.0519 30.4943 24.8646 30.4943 25.7274C30.4943 26.5903 30.31 27.403 30 28.1737C29.6817 28.9444 29.2293 29.623 28.6345 30.1675C28.0899 30.7121 27.4113 31.1645 26.6406 31.5331C25.8699 31.8514 25.0572 32.0274 24.1525 32.0274H12.5496C12.2312 32.0274 11.9631 32.1195 11.7286 32.3457C11.5024 32.5719 11.4102 32.8065 11.4102 33.1667C11.4102 33.4851 11.5024 33.7531 11.7286 33.9793C11.9548 34.2055 12.2228 34.2977 12.5496 34.2977H24.5211C26.0123 34.2977 27.4197 33.8872 28.6428 33.1667C29.2795 32.7562 29.866 32.2536 30.4105 31.7593C30.5948 31.5917 30.754 31.3907 30.9132 31.1896C31.0723 30.9885 31.2231 30.7875 31.3655 30.5697C31.6504 30.1424 31.885 29.69 32.086 29.2209C32.2871 28.7434 32.4379 28.2407 32.5384 27.7297C32.6473 27.1768 32.6808 26.6322 32.6892 26.0709C32.6976 25.4677 32.706 24.8646 32.6306 24.2697C32.5635 23.7001 32.4295 23.1388 32.2368 22.5942C32.0525 22.0748 31.8263 21.5806 31.5415 21.1114C30.8042 19.8883 29.7487 18.883 28.5088 18.1876Z" fill="#0197F6"/>
<path d="M12.826 30.5277H24.4792C25.1578 30.5277 25.7945 30.3937 26.3893 30.1172C26.9757 29.8492 27.4783 29.5308 27.9307 29.0784C28.3412 28.6679 28.7015 28.1318 28.9695 27.537C29.2376 26.9505 29.3717 26.3138 29.3633 25.6771C29.3633 24.9902 29.2125 24.3032 28.9193 23.6833C28.6428 23.0969 28.2826 22.5942 27.8805 22.1418C27.4281 21.6894 26.9338 21.3711 26.339 21.103C25.7526 20.8265 25.1159 20.7344 24.4289 20.7344H12.1055C6.83606 20.7344 2.53 16.4954 2.53 11.2175V10.2708C2.53 9.9106 2.58027 9.19851 2.61378 8.83827V8.8299L2.6054 8.83827C2.32056 9.30742 1.7844 10.2038 1.33201 11.2845C1.08906 11.8709 0.795851 12.6836 0.569657 13.6889C0.561279 13.7056 0.561279 13.714 0.561279 13.7308C1.33201 16.6713 3.43478 19.7375 6.15748 21.3627C6.38368 21.4967 6.52609 21.7313 6.52609 21.9994C6.52609 22.2759 6.39205 22.4937 6.15748 22.6361C4.52386 23.633 3.05779 25.208 2.11113 26.7578C2.25354 27.0594 2.38758 27.3024 2.48812 27.4699C2.71431 27.8553 2.98239 28.2407 3.51855 29.0114L3.52693 29.0198C3.52693 29.0198 3.52693 29.0114 3.53531 29.0114C3.99607 27.9726 4.8087 26.7578 5.62132 25.9033C7.43925 24.0854 9.79334 23.0885 12.3317 23.0466H13.2784H24.4792C25.208 23.0466 25.8447 23.3231 26.339 23.8173C26.8333 24.3116 27.1097 24.9483 27.1097 25.6353C27.1097 26.3557 26.8416 26.9505 26.339 27.4448C25.8447 27.9391 25.208 28.2155 24.4792 28.2155H12.7757C12.0972 28.2155 11.4605 28.3496 10.874 28.626C10.2876 28.9025 9.78496 29.2125 9.33257 29.6649C8.92207 30.0754 8.56184 30.6115 8.28538 31.2063C8.05919 31.7509 7.93352 32.6556 7.93352 33.2923C8.06756 33.3929 8.20998 33.4934 8.3524 33.5939C9.19853 34.172 10.0447 34.5992 10.8322 34.9092H10.8405C10.8405 34.9092 10.8405 34.9008 10.8322 34.9008C10.5222 34.4484 10.1787 33.6861 10.1787 33.0997C10.1787 32.3708 10.4468 31.7341 10.9494 31.2817C11.4605 30.7958 12.0972 30.5277 12.826 30.5277Z" fill="#0197F6"/>
<path d="M25.6017 25.6102C25.6017 25.9117 25.4761 26.2133 25.2415 26.4312C25.1158 26.5484 24.965 26.6322 24.8059 26.6825C24.6299 26.7327 24.1105 26.7244 24.0184 26.7244C23.7587 26.7244 12.8762 26.7244 12.826 26.7244C11.9631 26.7244 11.1002 26.9003 10.3378 27.2186C9.5671 27.537 8.88014 27.9894 8.34398 28.5339C7.75755 29.0785 7.30517 29.7152 6.98682 30.4859C6.80251 30.9383 6.54281 31.6923 6.45066 32.1446V32.153C6.45066 32.153 6.44228 32.153 6.44228 32.1446C5.89774 31.709 5.51237 31.332 5.36157 31.1896C5.11025 30.9383 4.82541 30.6283 4.51544 30.2597C5.55426 27.1265 8.79637 24.5546 12.3317 24.5127C12.3987 24.5127 24.0351 24.5127 24.1357 24.5127C24.4037 24.5127 24.6718 24.5127 24.9232 24.5965C25.1493 24.6802 25.342 24.8562 25.4677 25.0656C25.5598 25.2248 25.6017 25.4175 25.6017 25.6102Z" fill="#0197F6"/>
<path d="M32.0777 6.35857C30.9886 9.48339 27.9643 11.8961 24.429 11.938C24.429 11.938 12.4826 11.938 12.4323 11.938C12.3402 11.938 12.2396 11.938 12.1475 11.9296C11.9716 11.9045 11.7956 11.8459 11.6448 11.737C11.4857 11.6197 11.36 11.4689 11.2846 11.2929C11.226 11.1589 11.1924 11.0165 11.1924 10.8657C11.1924 10.606 11.2846 10.3379 11.4605 10.1452C11.494 10.1117 11.5192 10.0782 11.5527 10.0447C11.7035 9.91065 11.8962 9.81012 12.0972 9.78498C12.1391 9.77661 12.2564 9.76823 12.2815 9.76823H23.9347C24.7976 9.76823 25.6605 9.5923 26.4228 9.27395C27.1936 8.95561 27.8805 8.50322 28.4167 7.95868C29.0031 7.41414 29.4555 6.77744 29.7738 6.00671C29.9581 5.55432 30.1089 4.93438 30.2011 4.48199C30.444 4.69981 30.6954 4.93438 30.9467 5.18571C31.3572 5.57108 31.7342 5.9732 32.0777 6.35857Z" fill="#0197F6"/>
<path d="M13.2449 35.7805H23.2393C22.3932 36.191 20.4664 36.4758 18.238 36.4758C16.0095 36.4758 14.0911 36.191 13.2449 35.7805Z" fill="#0197F6"/>
</g>
<defs>
<clipPath id="clip0_602_720">
<rect width="150" height="36.4758" fill="white"/>
</clipPath>
</defs>
</svg>
